<?xml version="1.0" standalone="no"?>
<!DOCTYPE svg PUBLIC "-//W3C//DTD SVG 20010904//EN"
 "http://www.w3.org/TR/2001/REC-SVG-20010904/DTD/svg10.dtd">
<svg version="1.0" xmlns="http://www.w3.org/2000/svg"
 width="450.000000pt" height="450.000000pt" viewBox="0 0 450.000000 450.000000"
 preserveAspectRatio="xMidYMid meet">

<g transform="translate(0.000000,450.000000) scale(0.100000,-0.100000)"
fill="#000000" stroke="none">
<path d="M1801 2554 c0 -11 3 -14 6 -6 3 7 2 16 -1 19 -3 4 -6 -2 -5 -13z"/>
<path d="M1808 2135 c4 -371 10 -461 27 -387 3 18 11 34 15 37 5 3 7 19 3 35
-5 27 -3 30 22 30 15 0 34 -8 41 -17 14 -19 14 -25 15 357 1 205 0 264 -5 259
-2 -2 -7 -40 -10 -83 -4 -62 -10 -85 -26 -100 -18 -18 -20 -19 -20 -3 0 9 -3
17 -7 17 -5 0 -9 12 -10 27 0 15 -8 32 -15 37 -9 7 -13 24 -11 46 2 19 -3 58
-10 85 -12 44 -13 1 -9 -340z"/>
<path d="M1682 2432 c-2 -10 -16 -13 -52 -10 l-50 3 6 -30 c3 -17 30 -114 59
-215 l54 -185 -1 150 c-1 130 -12 325 -16 287z"/>
<path d="M1881 2294 c0 -11 3 -14 6 -6 3 7 2 16 -1 19 -3 4 -6 -2 -5 -13z"/>
<path d="M1500 2071 l0 -213 35 31 c20 17 42 31 50 31 8 0 15 8 15 18 0 18
-89 334 -96 341 -2 2 -4 -91 -4 -208z"/>
</g>
</svg>
